<?xml version="1.0" encoding="utf-8"?>
<!-- Generator: Adobe Illustrator 15.0.0, SVG Export Plug-In . SVG Version: 6.00 Build 0)  -->
<!DOCTYPE svg PUBLIC "-//W3C//DTD SVG 1.1//EN" "http://www.w3.org/Graphics/SVG/1.1/DTD/svg11.dtd">
<svg version="1.1" id="Layer_1" xmlns="http://www.w3.org/2000/svg" xmlns:xlink="http://www.w3.org/1999/xlink" x="0px" y="0px"
	 width="200px" height="200px" viewBox="0 0 200 200" enable-background="new 0 0 200 200" xml:space="preserve">
<path fill="#F69679" d="M78.111,92.035c0-2.806,1.986-6.247,4.416-7.649l13.248-7.649c2.43-1.402,6.404-1.402,8.834,0l13.248,7.649
	c2.43,1.402,4.416,4.844,4.416,7.649v15.299c0,2.805-1.986,6.247-4.416,7.648l-13.248,7.65c-2.43,1.402-6.404,1.402-8.834,0
	l-13.248-7.65c-2.43-1.401-4.416-4.844-4.416-7.648V92.035z"/>
<rect x="85.688" y="93.655" fill="#FFFFFF" width="6.219" height="20.004"/>
<path fill="#FFFFFF" d="M88.797,90.919c1.988,0,3.604-1.614,3.604-3.604c0-1.991-1.615-3.604-3.604-3.604
	c-1.992,0-3.604,1.613-3.604,3.604C85.193,89.305,86.805,90.919,88.797,90.919"/>
<path fill="#FFFFFF" d="M115.193,102.686c0-5.388-1.164-9.528-7.455-9.528c-3.023,0-5.053,1.657-5.883,3.23h-0.086v-2.732h-5.963
	v20.004h6.215v-9.896c0-2.609,0.494-5.138,3.729-5.138c3.186,0,3.232,2.985,3.232,5.306v9.729h6.211V102.686z"/>
</svg>
